<?xml version="1.0" encoding="UTF-8" standalone="no"?>
<!DOCTYPE svg PUBLIC "-//W3C//DTD SVG 1.1//EN"
 "http://www.w3.org/Graphics/SVG/1.1/DTD/svg11.dtd">
<!-- Generated by graphviz version 2.43.0 (0)
 -->
<!-- Title: dependency&#45;cruiser output Pages: 1 -->
<svg width="689pt" height="733pt"
 viewBox="0.00 0.00 689.48 733.00" xmlns="http://www.w3.org/2000/svg" xmlns:xlink="http://www.w3.org/1999/xlink">
<g id="graph0" class="graph" transform="scale(1 1) rotate(0) translate(4 729)">
<title>dependency&#45;cruiser output</title>
<polygon fill="white" stroke="transparent" points="-4,4 -4,-729 685.48,-729 685.48,4 -4,4"/>
<g id="clust1" class="cluster">
<title>cluster_src</title>
<path fill="#ffffff" stroke="black" stroke-width="2" d="M20,-8C20,-8 531.44,-8 531.44,-8 537.44,-8 543.44,-14 543.44,-20 543.44,-20 543.44,-705 543.44,-705 543.44,-711 537.44,-717 531.44,-717 531.44,-717 20,-717 20,-717 14,-717 8,-711 8,-705 8,-705 8,-20 8,-20 8,-14 14,-8 20,-8"/>
<text text-anchor="middle" x="275.72" y="-705.8" font-family="Helvetica,sans-Serif" font-weight="bold" font-size="9.00">src</text>
</g>
<g id="clust2" class="cluster">
<title>cluster_src/modules</title>
<path fill="#ffffff" stroke="black" stroke-width="2" d="M117.54,-42C117.54,-42 523.44,-42 523.44,-42 529.44,-42 535.44,-48 535.44,-54 535.44,-54 535.44,-680 535.44,-680 535.44,-686 529.44,-692 523.44,-692 523.44,-692 117.54,-692 117.54,-692 111.54,-692 105.54,-686 105.54,-680 105.54,-680 105.54,-54 105.54,-54 105.54,-48 111.54,-42 117.54,-42"/>
<text text-anchor="middle" x="320.49" y="-680.8" font-family="Helvetica,sans-Serif" font-weight="bold" font-size="9.00">modules</text>
</g>
<g id="clust3" class="cluster">
<title>cluster_src/modules/app</title>
<path fill="#ffffff" stroke="black" stroke-width="2" d="M142.56,-524C142.56,-524 515.44,-524 515.44,-524 521.44,-524 527.44,-530 527.44,-536 527.44,-536 527.44,-655 527.44,-655 527.44,-661 521.44,-667 515.44,-667 515.44,-667 142.56,-667 142.56,-667 136.56,-667 130.56,-661 130.56,-655 130.56,-655 130.56,-536 130.56,-536 130.56,-530 136.56,-524 142.56,-524"/>
<text text-anchor="middle" x="329" y="-655.8" font-family="Helvetica,sans-Serif" font-weight="bold" font-size="9.00">app</text>
</g>
<g id="clust4" class="cluster">
<title>cluster_src/modules/app/components</title>
<path fill="#ffffff" stroke="black" stroke-width="2" d="M382.44,-532C382.44,-532 507.44,-532 507.44,-532 513.44,-532 519.44,-538 519.44,-544 519.44,-544 519.44,-604 519.44,-604 519.44,-610 513.44,-616 507.44,-616 507.44,-616 382.44,-616 382.44,-616 376.44,-616 370.44,-610 370.44,-604 370.44,-604 370.44,-544 370.44,-544 370.44,-538 376.44,-532 382.44,-532"/>
<text text-anchor="middle" x="444.94" y="-604.8" font-family="Helvetica,sans-Serif" font-weight="bold" font-size="9.00">components</text>
</g>
<g id="clust5" class="cluster">
<title>cluster_src/modules/app/components/persisted&#45;connected&#45;router</title>
<path fill="#ffffff" stroke="black" stroke-width="2" d="M390.44,-540C390.44,-540 499.44,-540 499.44,-540 505.44,-540 511.44,-546 511.44,-552 511.44,-552 511.44,-579 511.44,-579 511.44,-585 505.44,-591 499.44,-591 499.44,-591 390.44,-591 390.44,-591 384.44,-591 378.44,-585 378.44,-579 378.44,-579 378.44,-552 378.44,-552 378.44,-546 384.44,-540 390.44,-540"/>
<text text-anchor="middle" x="444.94" y="-579.8" font-family="Helvetica,sans-Serif" font-weight="bold" font-size="9.00">persisted&#45;connected&#45;router</text>
</g>
<g id="clust6" class="cluster">
<title>cluster_src/modules/backend</title>
<path fill="#ffffff" stroke="black" stroke-width="2" d="M142.56,-465C142.56,-465 188.56,-465 188.56,-465 194.56,-465 200.56,-471 200.56,-477 200.56,-477 200.56,-504 200.56,-504 200.56,-510 194.56,-516 188.56,-516 188.56,-516 142.56,-516 142.56,-516 136.56,-516 130.56,-510 130.56,-504 130.56,-504 130.56,-477 130.56,-477 130.56,-471 136.56,-465 142.56,-465"/>
<text text-anchor="middle" x="165.56" y="-504.8" font-family="Helvetica,sans-Serif" font-weight="bold" font-size="9.00">backend</text>
</g>
<g id="clust7" class="cluster">
<title>cluster_src/modules/device</title>
<path fill="#ffffff" stroke="black" stroke-width="2" d="M142.56,-406C142.56,-406 188.56,-406 188.56,-406 194.56,-406 200.56,-412 200.56,-418 200.56,-418 200.56,-445 200.56,-445 200.56,-451 194.56,-457 188.56,-457 188.56,-457 142.56,-457 142.56,-457 136.56,-457 130.56,-451 130.56,-445 130.56,-445 130.56,-418 130.56,-418 130.56,-412 136.56,-406 142.56,-406"/>
<text text-anchor="middle" x="165.56" y="-445.8" font-family="Helvetica,sans-Serif" font-weight="bold" font-size="9.00">device</text>
</g>
<g id="clust8" class="cluster">
<title>cluster_src/modules/errors</title>
<path fill="#ffffff" stroke="black" stroke-width="2" d="M142.56,-226C142.56,-226 326.44,-226 326.44,-226 332.44,-226 338.44,-232 338.44,-238 338.44,-238 338.44,-386 338.44,-386 338.44,-392 332.44,-398 326.44,-398 326.44,-398 142.56,-398 142.56,-398 136.56,-398 130.56,-392 130.56,-386 130.56,-386 130.56,-238 130.56,-238 130.56,-232 136.56,-226 142.56,-226"/>
<text text-anchor="middle" x="234.5" y="-386.8" font-family="Helvetica,sans-Serif" font-weight="bold" font-size="9.00">errors</text>
</g>
<g id="clust9" class="cluster">
<title>cluster_src/modules/errors/components</title>
<path fill="#ffffff" stroke="black" stroke-width="2" d="M237.58,-322C237.58,-322 318.44,-322 318.44,-322 324.44,-322 330.44,-328 330.44,-334 330.44,-334 330.44,-361 330.44,-361 330.44,-367 324.44,-373 318.44,-373 318.44,-373 237.58,-373 237.58,-373 231.58,-373 225.58,-367 225.58,-361 225.58,-361 225.58,-334 225.58,-334 225.58,-328 231.58,-322 237.58,-322"/>
<text text-anchor="middle" x="278.01" y="-361.8" font-family="Helvetica,sans-Serif" font-weight="bold" font-size="9.00">components</text>
</g>
<g id="clust10" class="cluster">
<title>cluster_src/modules/errors/data</title>
<path fill="#ffffff" stroke="black" stroke-width="2" d="M251.25,-234C251.25,-234 304.77,-234 304.77,-234 310.77,-234 316.77,-240 316.77,-246 316.77,-246 316.77,-302 316.77,-302 316.77,-308 310.77,-314 304.77,-314 304.77,-314 251.25,-314 251.25,-314 245.25,-314 239.25,-308 239.25,-302 239.25,-302 239.25,-246 239.25,-246 239.25,-240 245.25,-234 251.25,-234"/>
<text text-anchor="middle" x="278.01" y="-302.8" font-family="Helvetica,sans-Serif" font-weight="bold" font-size="9.00">data</text>
</g>
<g id="clust11" class="cluster">
<title>cluster_src/modules/screens</title>
<path fill="#ffffff" stroke="black" stroke-width="2" d="M125.54,-138C125.54,-138 205.58,-138 205.58,-138 211.58,-138 217.58,-144 217.58,-150 217.58,-150 217.58,-206 217.58,-206 217.58,-212 211.58,-218 205.58,-218 205.58,-218 125.54,-218 125.54,-218 119.54,-218 113.54,-212 113.54,-206 113.54,-206 113.54,-150 113.54,-150 113.54,-144 119.54,-138 125.54,-138"/>
<text text-anchor="middle" x="165.56" y="-206.8" font-family="Helvetica,sans-Serif" font-weight="bold" font-size="9.00">screens</text>
</g>
<g id="clust12" class="cluster">
<title>cluster_src/modules/store</title>
<path fill="#ffffff" stroke="black" stroke-width="2" d="M142.56,-50C142.56,-50 188.56,-50 188.56,-50 194.56,-50 200.56,-56 200.56,-62 200.56,-62 200.56,-118 200.56,-118 200.56,-124 194.56,-130 188.56,-130 188.56,-130 142.56,-130 142.56,-130 136.56,-130 130.56,-124 130.56,-118 130.56,-118 130.56,-62 130.56,-62 130.56,-56 136.56,-50 142.56,-50"/>
<text text-anchor="middle" x="165.56" y="-118.8" font-family="Helvetica,sans-Serif" font-weight="bold" font-size="9.00">store</text>
</g>
<g id="clust13" class="cluster">
<title>cluster_~</title>
<path fill="#ffffff" stroke="black" stroke-width="2" d="M563.44,-317C563.44,-317 661.48,-317 661.48,-317 667.48,-317 673.48,-323 673.48,-329 673.48,-329 673.48,-561 673.48,-561 673.48,-567 667.48,-573 661.48,-573 661.48,-573 563.44,-573 563.44,-573 557.44,-573 551.44,-567 551.44,-561 551.44,-561 551.44,-329 551.44,-329 551.44,-323 557.44,-317 563.44,-317"/>
<text text-anchor="middle" x="612.46" y="-561.8" font-family="Helvetica,sans-Serif" font-weight="bold" font-size="9.00">~</text>
</g>
<g id="clust14" class="cluster">
<title>cluster_~/modules</title>
<path fill="#ffffff" stroke="black" stroke-width="2" d="M571.44,-325C571.44,-325 653.48,-325 653.48,-325 659.48,-325 665.48,-331 665.48,-337 665.48,-337 665.48,-536 665.48,-536 665.48,-542 659.48,-548 653.48,-548 653.48,-548 571.44,-548 571.44,-548 565.44,-548 559.44,-542 559.44,-536 559.44,-536 559.44,-337 559.44,-337 559.44,-331 565.44,-325 571.44,-325"/>
<text text-anchor="middle" x="612.46" y="-536.8" font-family="Helvetica,sans-Serif" font-weight="bold" font-size="9.00">modules</text>
</g>
<g id="clust15" class="cluster">
<title>cluster_~/modules/screens</title>
<path fill="#ffffff" stroke="black" stroke-width="2" d="M579.44,-388C579.44,-388 645.48,-388 645.48,-388 651.48,-388 657.48,-394 657.48,-400 657.48,-400 657.48,-456 657.48,-456 657.48,-462 651.48,-468 645.48,-468 645.48,-468 579.44,-468 579.44,-468 573.44,-468 567.44,-462 567.44,-456 567.44,-456 567.44,-400 567.44,-400 567.44,-394 573.44,-388 579.44,-388"/>
<text text-anchor="middle" x="612.46" y="-456.8" font-family="Helvetica,sans-Serif" font-weight="bold" font-size="9.00">screens</text>
</g>
<!-- src/declarations.d.ts -->
<g id="node1" class="node">
<title>src/declarations.d.ts</title>
<g id="a_node1"><a xlink:href="src/declarations.d.ts" xlink:title="declarations.d.ts">
<path fill="#ddfeff" stroke="black" d="M91.64,-533.5C91.64,-533.5 21.9,-533.5 21.9,-533.5 19.06,-533.5 16.23,-530.67 16.23,-527.83 16.23,-527.83 16.23,-522.17 16.23,-522.17 16.23,-519.33 19.06,-516.5 21.9,-516.5 21.9,-516.5 91.64,-516.5 91.64,-516.5 94.47,-516.5 97.3,-519.33 97.3,-522.17 97.3,-522.17 97.3,-527.83 97.3,-527.83 97.3,-530.67 94.47,-533.5 91.64,-533.5"/>
<text text-anchor="middle" x="56.77" y="-522.3" font-family="Helvetica,sans-Serif" font-size="9.00">declarations.d.ts</text>
</a>
</g>
</g>
<!-- src/index.css -->
<g id="node2" class="node">
<title>src/index.css</title>
<g id="a_node2"><a xlink:href="src/index.css" xlink:title="index.css">
<path fill="#ffffcc" stroke="black" d="M186.89,-33.5C186.89,-33.5 144.22,-33.5 144.22,-33.5 141.39,-33.5 138.56,-30.67 138.56,-27.83 138.56,-27.83 138.56,-22.17 138.56,-22.17 138.56,-19.33 141.39,-16.5 144.22,-16.5 144.22,-16.5 186.89,-16.5 186.89,-16.5 189.72,-16.5 192.56,-19.33 192.56,-22.17 192.56,-22.17 192.56,-27.83 192.56,-27.83 192.56,-30.67 189.72,-33.5 186.89,-33.5"/>
<text text-anchor="middle" x="165.56" y="-22.3" font-family="Helvetica,sans-Serif" font-size="9.00">index.css</text>
</a>
</g>
</g>
<!-- src/index.tsx -->
<g id="node3" class="node">
<title>src/index.tsx</title>
<g id="a_node3"><a xlink:href="src/index.tsx" xlink:title="index.tsx">
<path fill="#bbfeff" stroke="black" d="M78.1,-190.5C78.1,-190.5 35.43,-190.5 35.43,-190.5 32.6,-190.5 29.77,-187.67 29.77,-184.83 29.77,-184.83 29.77,-179.17 29.77,-179.17 29.77,-176.33 32.6,-173.5 35.43,-173.5 35.43,-173.5 78.1,-173.5 78.1,-173.5 80.93,-173.5 83.77,-176.33 83.77,-179.17 83.77,-179.17 83.77,-184.83 83.77,-184.83 83.77,-187.67 80.93,-190.5 78.1,-190.5"/>
<text text-anchor="middle" x="56.77" y="-179.3" font-family="Helvetica,sans-Serif" font-size="9.00">index.tsx</text>
</a>
</g>
</g>
<!-- src/index.tsx&#45;&gt;src/index.css -->
<g id="edge1" class="edge">
<title>src/index.tsx&#45;&gt;src/index.css</title>
<path fill="none" stroke="#000000" stroke-width="2" stroke-opacity="0.200000" d="M58.35,-173.43C60.4,-149.95 69.28,-83.87 105.54,-47 111.89,-40.54 120.31,-35.96 128.79,-32.72"/>
<polygon fill="#000000" fill-opacity="0.200000" stroke="#000000" stroke-width="2" stroke-opacity="0.200000" points="129.88,-36.04 138.29,-29.59 127.7,-29.39 129.88,-36.04"/>
</g>
<!-- src/modules/app/index.tsx -->
<g id="node7" class="node">
<title>src/modules/app/index.tsx</title>
<g id="a_node7"><a xlink:href="src/modules/app/index.tsx" xlink:title="index.tsx">
<path fill="#bbfeff" stroke="black" d="M186.89,-549.5C186.89,-549.5 144.22,-549.5 144.22,-549.5 141.39,-549.5 138.56,-546.67 138.56,-543.83 138.56,-543.83 138.56,-538.17 138.56,-538.17 138.56,-535.33 141.39,-532.5 144.22,-532.5 144.22,-532.5 186.89,-532.5 186.89,-532.5 189.72,-532.5 192.56,-535.33 192.56,-538.17 192.56,-538.17 192.56,-543.83 192.56,-543.83 192.56,-546.67 189.72,-549.5 186.89,-549.5"/>
<text text-anchor="middle" x="165.56" y="-538.3" font-family="Helvetica,sans-Serif" font-size="9.00">index.tsx</text>
</a>
</g>
</g>
<!-- src/index.tsx&#45;&gt;src/modules/app/index.tsx -->
<g id="edge2" class="edge">
<title>src/index.tsx&#45;&gt;src/modules/app/index.tsx</title>
<path fill="none" stroke="#000000" stroke-width="2" stroke-opacity="0.200000" d="M57.83,-190.7C58.37,-238.22 63.13,-466.28 105.54,-519 111.36,-526.24 119.83,-531.1 128.54,-534.36"/>
<polygon fill="#000000" fill-opacity="0.200000" stroke="#000000" stroke-width="2" stroke-opacity="0.200000" points="127.76,-537.78 138.34,-537.4 129.83,-531.1 127.76,-537.78"/>
</g>
<!-- src/modules/app/app.test.tsx -->
<g id="node4" class="node">
<title>src/modules/app/app.test.tsx</title>
<g id="a_node4"><a xlink:href="src/modules/app/app.test.tsx" xlink:title="app.test.tsx">
<path fill="#bbfeff" stroke="black" d="M303.37,-641.5C303.37,-641.5 252.65,-641.5 252.65,-641.5 249.82,-641.5 246.98,-638.67 246.98,-635.83 246.98,-635.83 246.98,-630.17 246.98,-630.17 246.98,-627.33 249.82,-624.5 252.65,-624.5 252.65,-624.5 303.37,-624.5 303.37,-624.5 306.2,-624.5 309.03,-627.33 309.03,-630.17 309.03,-630.17 309.03,-635.83 309.03,-635.83 309.03,-638.67 306.2,-641.5 303.37,-641.5"/>
<text text-anchor="middle" x="278.01" y="-630.3" font-family="Helvetica,sans-Serif" font-size="9.00">app.test.tsx</text>
</a>
</g>
</g>
<!-- src/modules/app/app.tsx -->
<g id="node5" class="node">
<title>src/modules/app/app.tsx</title>
<g id="a_node5"><a xlink:href="src/modules/app/app.tsx" xlink:title="app.tsx">
<path fill="#bbfeff" stroke="black" d="M465.77,-641.5C465.77,-641.5 423.11,-641.5 423.11,-641.5 420.27,-641.5 417.44,-638.67 417.44,-635.83 417.44,-635.83 417.44,-630.17 417.44,-630.17 417.44,-627.33 420.27,-624.5 423.11,-624.5 423.11,-624.5 465.77,-624.5 465.77,-624.5 468.61,-624.5 471.44,-627.33 471.44,-630.17 471.44,-630.17 471.44,-635.83 471.44,-635.83 471.44,-638.67 468.61,-641.5 465.77,-641.5"/>
<text text-anchor="middle" x="444.44" y="-630.3" font-family="Helvetica,sans-Serif" font-size="9.00">app.tsx</text>
</a>
</g>
</g>
<!-- src/modules/app/app.test.tsx&#45;&gt;src/modules/app/app.tsx -->
<g id="edge3" class="edge">
<title>src/modules/app/app.test.tsx&#45;&gt;src/modules/app/app.tsx</title>
<path fill="none" stroke="#000000" stroke-width="2" stroke-opacity="0.200000" d="M309.17,-633C336.75,-633 377.6,-633 407,-633"/>
<polygon fill="#000000" fill-opacity="0.200000" stroke="#000000" stroke-width="2" stroke-opacity="0.200000" points="407.27,-636.5 417.27,-633 407.27,-629.5 407.27,-636.5"/>
</g>
<!-- src/modules/app/components/persisted&#45;connected&#45;router/index.tsx -->
<g id="node6" class="node">
<title>src/modules/app/components/persisted&#45;connected&#45;router/index.tsx</title>
<g id="a_node6"><a xlink:href="src/modules/app/components/persisted-connected-router/index.tsx" xlink:title="index.tsx">
<path fill="#bbfeff" stroke="black" d="M465.77,-565.5C465.77,-565.5 423.11,-565.5 423.11,-565.5 420.27,-565.5 417.44,-562.67 417.44,-559.83 417.44,-559.83 417.44,-554.17 417.44,-554.17 417.44,-551.33 420.27,-548.5 423.11,-548.5 423.11,-548.5 465.77,-548.5 465.77,-548.5 468.61,-548.5 471.44,-551.33 471.44,-554.17 471.44,-554.17 471.44,-559.83 471.44,-559.83 471.44,-562.67 468.61,-565.5 465.77,-565.5"/>
<text text-anchor="middle" x="444.44" y="-554.3" font-family="Helvetica,sans-Serif" font-size="9.00">index.tsx</text>
</a>
</g>
</g>
<!-- ~/modules/device -->
<g id="node20" class="node">
<title>~/modules/device</title>
<path fill="#ffffcc" stroke="red" d="M633.79,-522.5C633.79,-522.5 591.13,-522.5 591.13,-522.5 588.29,-522.5 585.46,-519.67 585.46,-516.83 585.46,-516.83 585.46,-511.17 585.46,-511.17 585.46,-508.33 588.29,-505.5 591.13,-505.5 591.13,-505.5 633.79,-505.5 633.79,-505.5 636.63,-505.5 639.46,-508.33 639.46,-511.17 639.46,-511.17 639.46,-516.83 639.46,-516.83 639.46,-519.67 636.63,-522.5 633.79,-522.5"/>
<text text-anchor="middle" x="612.46" y="-511.3" font-family="Helvetica,sans-Serif" font-size="9.00" fill="red">device</text>
</g>
<!-- src/modules/app/components/persisted&#45;connected&#45;router/index.tsx&#45;&gt;~/modules/device -->
<g id="edge4" class="edge">
<title>src/modules/app/components/persisted&#45;connected&#45;router/index.tsx&#45;&gt;~/modules/device</title>
<path fill="none" stroke="#000000" stroke-width="2" stroke-opacity="0.200000" d="M471.75,-550.19C499.68,-542.95 544.01,-531.47 575.23,-523.38"/>
<polygon fill="#000000" fill-opacity="0.200000" stroke="#000000" stroke-width="2" stroke-opacity="0.200000" points="576.47,-526.68 585.28,-520.78 574.72,-519.9 576.47,-526.68"/>
</g>
<!-- src/modules/app/root.tsx -->
<g id="node8" class="node">
<title>src/modules/app/root.tsx</title>
<g id="a_node8"><a xlink:href="src/modules/app/root.tsx" xlink:title="root.tsx">
<path fill="#bbfeff" stroke="black" d="M299.34,-549.5C299.34,-549.5 256.67,-549.5 256.67,-549.5 253.84,-549.5 251.01,-546.67 251.01,-543.83 251.01,-543.83 251.01,-538.17 251.01,-538.17 251.01,-535.33 253.84,-532.5 256.67,-532.5 256.67,-532.5 299.34,-532.5 299.34,-532.5 302.17,-532.5 305.01,-535.33 305.01,-538.17 305.01,-538.17 305.01,-543.83 305.01,-543.83 305.01,-546.67 302.17,-549.5 299.34,-549.5"/>
<text text-anchor="middle" x="278.01" y="-538.3" font-family="Helvetica,sans-Serif" font-size="9.00">root.tsx</text>
</a>
</g>
</g>
<!-- src/modules/app/index.tsx&#45;&gt;src/modules/app/root.tsx -->
<g id="edge5" class="edge">
<title>src/modules/app/index.tsx&#45;&gt;src/modules/app/root.tsx</title>
<path fill="none" stroke="#000000" stroke-width="2" stroke-opacity="0.200000" d="M192.73,-541C206.93,-541 224.72,-541 240.29,-541"/>
<polygon fill="#000000" fill-opacity="0.200000" stroke="#000000" stroke-width="2" stroke-opacity="0.200000" points="240.64,-544.5 250.64,-541 240.64,-537.5 240.64,-544.5"/>
</g>
<!-- src/modules/app/root.tsx&#45;&gt;src/modules/app/app.tsx -->
<g id="edge6" class="edge">
<title>src/modules/app/root.tsx&#45;&gt;src/modules/app/app.tsx</title>
<path fill="none" stroke="#000000" stroke-width="2" stroke-opacity="0.200000" d="M293.49,-549.6C311.44,-560.22 343.03,-578.74 370.44,-594 386.15,-602.75 403.94,-612.26 418.03,-619.7"/>
<polygon fill="#000000" fill-opacity="0.200000" stroke="#000000" stroke-width="2" stroke-opacity="0.200000" points="416.64,-622.92 427.12,-624.49 419.9,-616.73 416.64,-622.92"/>
</g>
<!-- src/modules/app/root.tsx&#45;&gt;src/modules/app/components/persisted&#45;connected&#45;router/index.tsx -->
<g id="edge7" class="edge">
<title>src/modules/app/root.tsx&#45;&gt;src/modules/app/components/persisted&#45;connected&#45;router/index.tsx</title>
<path fill="none" stroke="#000000" stroke-width="2" stroke-opacity="0.200000" d="M305.06,-543.54C332.52,-546.21 376,-550.44 406.88,-553.44"/>
<polygon fill="#000000" fill-opacity="0.200000" stroke="#000000" stroke-width="2" stroke-opacity="0.200000" points="406.94,-556.97 417.24,-554.45 407.62,-550 406.94,-556.97"/>
</g>
<!-- ~/modules/errors -->
<g id="node21" class="node">
<title>~/modules/errors</title>
<path fill="#ffffcc" stroke="red" d="M633.79,-379.5C633.79,-379.5 591.13,-379.5 591.13,-379.5 588.29,-379.5 585.46,-376.67 585.46,-373.83 585.46,-373.83 585.46,-368.17 585.46,-368.17 585.46,-365.33 588.29,-362.5 591.13,-362.5 591.13,-362.5 633.79,-362.5 633.79,-362.5 636.63,-362.5 639.46,-365.33 639.46,-368.17 639.46,-368.17 639.46,-373.83 639.46,-373.83 639.46,-376.67 636.63,-379.5 633.79,-379.5"/>
<text text-anchor="middle" x="612.46" y="-368.3" font-family="Helvetica,sans-Serif" font-size="9.00" fill="red">errors</text>
</g>
<!-- src/modules/app/root.tsx&#45;&gt;~/modules/errors -->
<g id="edge8" class="edge">
<title>src/modules/app/root.tsx&#45;&gt;~/modules/errors</title>
<path fill="none" stroke="#000000" stroke-width="2" stroke-opacity="0.200000" d="M285.67,-532.45C299.64,-515.04 333.73,-475.18 370.44,-452 436.47,-410.3 526.35,-387.55 575.57,-377.48"/>
<polygon fill="#000000" fill-opacity="0.200000" stroke="#000000" stroke-width="2" stroke-opacity="0.200000" points="576.31,-380.9 585.44,-375.52 574.95,-374.03 576.31,-380.9"/>
</g>
<!-- ~/modules/screens/loading&#45;splash -->
<g id="node22" class="node">
<title>~/modules/screens/loading&#45;splash</title>
<path fill="#ffffcc" stroke="red" d="M643.83,-442.5C643.83,-442.5 581.09,-442.5 581.09,-442.5 578.25,-442.5 575.42,-439.67 575.42,-436.83 575.42,-436.83 575.42,-431.17 575.42,-431.17 575.42,-428.33 578.25,-425.5 581.09,-425.5 581.09,-425.5 643.83,-425.5 643.83,-425.5 646.67,-425.5 649.5,-428.33 649.5,-431.17 649.5,-431.17 649.5,-436.83 649.5,-436.83 649.5,-439.67 646.67,-442.5 643.83,-442.5"/>
<text text-anchor="middle" x="612.46" y="-431.3" font-family="Helvetica,sans-Serif" font-size="9.00" fill="red">loading&#45;splash</text>
</g>
<!-- src/modules/app/root.tsx&#45;&gt;~/modules/screens/loading&#45;splash -->
<g id="edge9" class="edge">
<title>src/modules/app/root.tsx&#45;&gt;~/modules/screens/loading&#45;splash</title>
<path fill="none" stroke="#000000" stroke-width="2" stroke-opacity="0.200000" d="M293.1,-532.44C310.67,-522.1 341.87,-504.73 370.44,-494 444.61,-466.15 469.12,-478.44 543.44,-451 547.17,-449.62 547.69,-448.32 551.44,-447 555.92,-445.42 560.66,-444 565.42,-442.73"/>
<polygon fill="#000000" fill-opacity="0.200000" stroke="#000000" stroke-width="2" stroke-opacity="0.200000" points="566.32,-446.11 575.19,-440.32 564.64,-439.32 566.32,-446.11"/>
</g>
<!-- ~/modules/store -->
<g id="node24" class="node">
<title>~/modules/store</title>
<path fill="#ffffcc" stroke="red" d="M633.79,-493.5C633.79,-493.5 591.13,-493.5 591.13,-493.5 588.29,-493.5 585.46,-490.67 585.46,-487.83 585.46,-487.83 585.46,-482.17 585.46,-482.17 585.46,-479.33 588.29,-476.5 591.13,-476.5 591.13,-476.5 633.79,-476.5 633.79,-476.5 636.63,-476.5 639.46,-479.33 639.46,-482.17 639.46,-482.17 639.46,-487.83 639.46,-487.83 639.46,-490.67 636.63,-493.5 633.79,-493.5"/>
<text text-anchor="middle" x="612.46" y="-482.3" font-family="Helvetica,sans-Serif" font-size="9.00" fill="red">store</text>
</g>
<!-- src/modules/app/root.tsx&#45;&gt;~/modules/store -->
<g id="edge10" class="edge">
<title>src/modules/app/root.tsx&#45;&gt;~/modules/store</title>
<path fill="none" stroke="#000000" stroke-width="2" stroke-opacity="0.200000" d="M305.1,-536.61C363.94,-526.69 507.14,-502.57 574.84,-491.17"/>
<polygon fill="#000000" fill-opacity="0.200000" stroke="#000000" stroke-width="2" stroke-opacity="0.200000" points="575.75,-494.56 585.03,-489.45 574.59,-487.66 575.75,-494.56"/>
</g>
<!-- src/modules/backend/index.ts -->
<g id="node9" class="node">
<title>src/modules/backend/index.ts</title>
<g id="a_node9"><a xlink:href="src/modules/backend/index.ts" xlink:title="index.ts">
<path fill="#ddfeff" stroke="black" d="M186.89,-490.5C186.89,-490.5 144.22,-490.5 144.22,-490.5 141.39,-490.5 138.56,-487.67 138.56,-484.83 138.56,-484.83 138.56,-479.17 138.56,-479.17 138.56,-476.33 141.39,-473.5 144.22,-473.5 144.22,-473.5 186.89,-473.5 186.89,-473.5 189.72,-473.5 192.56,-476.33 192.56,-479.17 192.56,-479.17 192.56,-484.83 192.56,-484.83 192.56,-487.67 189.72,-490.5 186.89,-490.5"/>
<text text-anchor="middle" x="165.56" y="-479.3" font-family="Helvetica,sans-Serif" font-size="9.00">index.ts</text>
</a>
</g>
</g>
<!-- src/modules/device/index.ts -->
<g id="node10" class="node">
<title>src/modules/device/index.ts</title>
<g id="a_node10"><a xlink:href="src/modules/device/index.ts" xlink:title="index.ts">
<path fill="#ddfeff" stroke="black" d="M186.89,-431.5C186.89,-431.5 144.22,-431.5 144.22,-431.5 141.39,-431.5 138.56,-428.67 138.56,-425.83 138.56,-425.83 138.56,-420.17 138.56,-420.17 138.56,-417.33 141.39,-414.5 144.22,-414.5 144.22,-414.5 186.89,-414.5 186.89,-414.5 189.72,-414.5 192.56,-417.33 192.56,-420.17 192.56,-420.17 192.56,-425.83 192.56,-425.83 192.56,-428.67 189.72,-431.5 186.89,-431.5"/>
<text text-anchor="middle" x="165.56" y="-420.3" font-family="Helvetica,sans-Serif" font-size="9.00">index.ts</text>
</a>
</g>
</g>
<!-- src/modules/errors/components/error&#45;boundary.tsx -->
<g id="node11" class="node">
<title>src/modules/errors/components/error&#45;boundary.tsx</title>
<g id="a_node11"><a xlink:href="src/modules/errors/components/error-boundary.tsx" xlink:title="error&#45;boundary.tsx">
<path fill="#bbfeff" stroke="black" d="M316.71,-347.5C316.71,-347.5 239.31,-347.5 239.31,-347.5 236.48,-347.5 233.64,-344.67 233.64,-341.83 233.64,-341.83 233.64,-336.17 233.64,-336.17 233.64,-333.33 236.48,-330.5 239.31,-330.5 239.31,-330.5 316.71,-330.5 316.71,-330.5 319.54,-330.5 322.37,-333.33 322.37,-336.17 322.37,-336.17 322.37,-341.83 322.37,-341.83 322.37,-344.67 319.54,-347.5 316.71,-347.5"/>
<text text-anchor="middle" x="278.01" y="-336.3" font-family="Helvetica,sans-Serif" font-size="9.00">error&#45;boundary.tsx</text>
</a>
</g>
</g>
<!-- src/modules/errors/components/error&#45;boundary.tsx&#45;&gt;~/modules/errors -->
<g id="edge11" class="edge">
<title>src/modules/errors/components/error&#45;boundary.tsx&#45;&gt;~/modules/errors</title>
<path fill="none" stroke="#000000" stroke-width="2" stroke-opacity="0.200000" d="M322.47,-343.18C388.69,-349.56 513.64,-361.58 575.25,-367.51"/>
<polygon fill="#000000" fill-opacity="0.200000" stroke="#000000" stroke-width="2" stroke-opacity="0.200000" points="574.99,-371.01 585.28,-368.48 575.66,-364.04 574.99,-371.01"/>
</g>
<!-- ~/modules/screens/with&#45;errors -->
<g id="node23" class="node">
<title>~/modules/screens/with&#45;errors</title>
<path fill="#ffffcc" stroke="red" d="M635.8,-413.5C635.8,-413.5 589.12,-413.5 589.12,-413.5 586.29,-413.5 583.45,-410.67 583.45,-407.83 583.45,-407.83 583.45,-402.17 583.45,-402.17 583.45,-399.33 586.29,-396.5 589.12,-396.5 589.12,-396.5 635.8,-396.5 635.8,-396.5 638.63,-396.5 641.47,-399.33 641.47,-402.17 641.47,-402.17 641.47,-407.83 641.47,-407.83 641.47,-410.67 638.63,-413.5 635.8,-413.5"/>
<text text-anchor="middle" x="612.46" y="-402.3" font-family="Helvetica,sans-Serif" font-size="9.00" fill="red">with&#45;errors</text>
</g>
<!-- src/modules/errors/components/error&#45;boundary.tsx&#45;&gt;~/modules/screens/with&#45;errors -->
<g id="edge12" class="edge">
<title>src/modules/errors/components/error&#45;boundary.tsx&#45;&gt;~/modules/screens/with&#45;errors</title>
<path fill="none" stroke="#000000" stroke-width="2" stroke-opacity="0.200000" d="M304.79,-347.56C322.98,-353.37 348.01,-360.89 370.44,-366 441.33,-382.13 525.43,-394.16 573.21,-400.33"/>
<polygon fill="#000000" fill-opacity="0.200000" stroke="#000000" stroke-width="2" stroke-opacity="0.200000" points="573.04,-403.84 583.4,-401.63 573.93,-396.9 573.04,-403.84"/>
</g>
<!-- src/modules/errors/data/reducers.ts -->
<g id="node12" class="node">
<title>src/modules/errors/data/reducers.ts</title>
<g id="a_node12"><a xlink:href="src/modules/errors/data/reducers.ts" xlink:title="reducers.ts">
<path fill="#ddfeff" stroke="black" d="M302.36,-288.5C302.36,-288.5 253.66,-288.5 253.66,-288.5 250.82,-288.5 247.99,-285.67 247.99,-282.83 247.99,-282.83 247.99,-277.17 247.99,-277.17 247.99,-274.33 250.82,-271.5 253.66,-271.5 253.66,-271.5 302.36,-271.5 302.36,-271.5 305.19,-271.5 308.03,-274.33 308.03,-277.17 308.03,-277.17 308.03,-282.83 308.03,-282.83 308.03,-285.67 305.19,-288.5 302.36,-288.5"/>
<text text-anchor="middle" x="278.01" y="-277.3" font-family="Helvetica,sans-Serif" font-size="9.00">reducers.ts</text>
</a>
</g>
</g>
<!-- ~/modules/backend -->
<g id="node19" class="node">
<title>~/modules/backend</title>
<path fill="#ffffcc" stroke="red" d="M633.79,-350.5C633.79,-350.5 591.13,-350.5 591.13,-350.5 588.29,-350.5 585.46,-347.67 585.46,-344.83 585.46,-344.83 585.46,-339.17 585.46,-339.17 585.46,-336.33 588.29,-333.5 591.13,-333.5 591.13,-333.5 633.79,-333.5 633.79,-333.5 636.63,-333.5 639.46,-336.33 639.46,-339.17 639.46,-339.17 639.46,-344.83 639.46,-344.83 639.46,-347.67 636.63,-350.5 633.79,-350.5"/>
<text text-anchor="middle" x="612.46" y="-339.3" font-family="Helvetica,sans-Serif" font-size="9.00" fill="red">backend</text>
</g>
<!-- src/modules/errors/data/reducers.ts&#45;&gt;~/modules/backend -->
<g id="edge13" class="edge">
<title>src/modules/errors/data/reducers.ts&#45;&gt;~/modules/backend</title>
<path fill="none" stroke="#000000" stroke-width="2" stroke-opacity="0.200000" d="M308.22,-285.45C368.98,-296.78 508.84,-322.86 575.22,-335.24"/>
<polygon fill="#000000" fill-opacity="0.200000" stroke="#000000" stroke-width="2" stroke-opacity="0.200000" points="574.75,-338.71 585.22,-337.11 576.03,-331.83 574.75,-338.71"/>
</g>
<!-- src/modules/errors/data/selectors.ts -->
<g id="node13" class="node">
<title>src/modules/errors/data/selectors.ts</title>
<g id="a_node13"><a xlink:href="src/modules/errors/data/selectors.ts" xlink:title="selectors.ts">
<path fill="#ddfeff" stroke="black" d="M302.86,-259.5C302.86,-259.5 253.16,-259.5 253.16,-259.5 250.33,-259.5 247.49,-256.67 247.49,-253.83 247.49,-253.83 247.49,-248.17 247.49,-248.17 247.49,-245.33 250.33,-242.5 253.16,-242.5 253.16,-242.5 302.86,-242.5 302.86,-242.5 305.69,-242.5 308.52,-245.33 308.52,-248.17 308.52,-248.17 308.52,-253.83 308.52,-253.83 308.52,-256.67 305.69,-259.5 302.86,-259.5"/>
<text text-anchor="middle" x="278.01" y="-248.3" font-family="Helvetica,sans-Serif" font-size="9.00">selectors.ts</text>
</a>
</g>
</g>
<!-- src/modules/errors/index.ts -->
<g id="node14" class="node">
<title>src/modules/errors/index.ts</title>
<g id="a_node14"><a xlink:href="src/modules/errors/index.ts" xlink:title="index.ts">
<path fill="#ddfeff" stroke="black" d="M186.89,-317.5C186.89,-317.5 144.22,-317.5 144.22,-317.5 141.39,-317.5 138.56,-314.67 138.56,-311.83 138.56,-311.83 138.56,-306.17 138.56,-306.17 138.56,-303.33 141.39,-300.5 144.22,-300.5 144.22,-300.5 186.89,-300.5 186.89,-300.5 189.72,-300.5 192.56,-303.33 192.56,-306.17 192.56,-306.17 192.56,-311.83 192.56,-311.83 192.56,-314.67 189.72,-317.5 186.89,-317.5"/>
<text text-anchor="middle" x="165.56" y="-306.3" font-family="Helvetica,sans-Serif" font-size="9.00">index.ts</text>
</a>
</g>
</g>
<!-- src/modules/errors/index.ts&#45;&gt;src/modules/errors/components/error&#45;boundary.tsx -->
<g id="edge14" class="edge">
<title>src/modules/errors/index.ts&#45;&gt;src/modules/errors/components/error&#45;boundary.tsx</title>
<path fill="none" stroke="#000000" stroke-width="2" stroke-opacity="0.200000" d="M192.73,-316.11C205.59,-319.6 221.38,-323.89 235.8,-327.81"/>
<polygon fill="#000000" fill-opacity="0.200000" stroke="#000000" stroke-width="2" stroke-opacity="0.200000" points="234.95,-331.2 245.51,-330.45 236.78,-324.45 234.95,-331.2"/>
</g>
<!-- src/modules/errors/index.ts&#45;&gt;src/modules/errors/data/reducers.ts -->
<g id="edge15" class="edge">
<title>src/modules/errors/index.ts&#45;&gt;src/modules/errors/data/reducers.ts</title>
<path fill="none" stroke="#000000" stroke-width="2" stroke-opacity="0.200000" d="M192.73,-302.13C206.21,-298.59 222.91,-294.2 237.88,-290.27"/>
<polygon fill="#000000" fill-opacity="0.200000" stroke="#000000" stroke-width="2" stroke-opacity="0.200000" points="239.13,-293.56 247.91,-287.64 237.35,-286.79 239.13,-293.56"/>
</g>
<!-- src/modules/screens/loading&#45;splash.tsx -->
<g id="node15" class="node">
<title>src/modules/screens/loading&#45;splash.tsx</title>
<g id="a_node15"><a xlink:href="src/modules/screens/loading-splash.tsx" xlink:title="loading&#45;splash.tsx">
<path fill="#bbfeff" stroke="black" d="M203.93,-192.5C203.93,-192.5 127.18,-192.5 127.18,-192.5 124.35,-192.5 121.52,-189.67 121.52,-186.83 121.52,-186.83 121.52,-181.17 121.52,-181.17 121.52,-178.33 124.35,-175.5 127.18,-175.5 127.18,-175.5 203.93,-175.5 203.93,-175.5 206.76,-175.5 209.59,-178.33 209.59,-181.17 209.59,-181.17 209.59,-186.83 209.59,-186.83 209.59,-189.67 206.76,-192.5 203.93,-192.5"/>
<text text-anchor="middle" x="165.56" y="-181.3" font-family="Helvetica,sans-Serif" font-size="9.00">loading&#45;splash.tsx</text>
</a>
</g>
</g>
<!-- src/modules/screens/with&#45;errors.tsx -->
<g id="node16" class="node">
<title>src/modules/screens/with&#45;errors.tsx</title>
<g id="a_node16"><a xlink:href="src/modules/screens/with-errors.tsx" xlink:title="with&#45;errors.tsx">
<path fill="#bbfeff" stroke="black" d="M195.9,-163.5C195.9,-163.5 135.22,-163.5 135.22,-163.5 132.38,-163.5 129.55,-160.67 129.55,-157.83 129.55,-157.83 129.55,-152.17 129.55,-152.17 129.55,-149.33 132.38,-146.5 135.22,-146.5 135.22,-146.5 195.9,-146.5 195.9,-146.5 198.73,-146.5 201.56,-149.33 201.56,-152.17 201.56,-152.17 201.56,-157.83 201.56,-157.83 201.56,-160.67 198.73,-163.5 195.9,-163.5"/>
<text text-anchor="middle" x="165.56" y="-152.3" font-family="Helvetica,sans-Serif" font-size="9.00">with&#45;errors.tsx</text>
</a>
</g>
</g>
<!-- src/modules/store/index.ts -->
<g id="node17" class="node">
<title>src/modules/store/index.ts</title>
<g id="a_node17"><a xlink:href="src/modules/store/index.ts" xlink:title="index.ts">
<path fill="#ddfeff" stroke="black" d="M186.89,-104.5C186.89,-104.5 144.22,-104.5 144.22,-104.5 141.39,-104.5 138.56,-101.67 138.56,-98.83 138.56,-98.83 138.56,-93.17 138.56,-93.17 138.56,-90.33 141.39,-87.5 144.22,-87.5 144.22,-87.5 186.89,-87.5 186.89,-87.5 189.72,-87.5 192.56,-90.33 192.56,-93.17 192.56,-93.17 192.56,-98.83 192.56,-98.83 192.56,-101.67 189.72,-104.5 186.89,-104.5"/>
<text text-anchor="middle" x="165.56" y="-93.3" font-family="Helvetica,sans-Serif" font-size="9.00">index.ts</text>
</a>
</g>
</g>
<!-- src/modules/store/index.ts&#45;&gt;~/modules/errors -->
<g id="edge16" class="edge">
<title>src/modules/store/index.ts&#45;&gt;~/modules/errors</title>
<path fill="none" stroke="#000000" stroke-width="2" stroke-opacity="0.200000" d="M184.46,-104.54C241.91,-132.59 424.8,-226.85 543.44,-345 547.98,-349.52 546.17,-353.35 551.44,-357 558.44,-361.85 566.9,-365.04 575.22,-367.13"/>
<polygon fill="#000000" fill-opacity="0.200000" stroke="#000000" stroke-width="2" stroke-opacity="0.200000" points="574.7,-370.6 585.2,-369.17 576.11,-363.74 574.7,-370.6"/>
</g>
<!-- src/modules/store/shared.ts -->
<g id="node18" class="node">
<title>src/modules/store/shared.ts</title>
<g id="a_node18"><a xlink:href="src/modules/store/shared.ts" xlink:title="shared.ts">
<path fill="#ddfeff" stroke="black" d="M186.89,-75.5C186.89,-75.5 144.22,-75.5 144.22,-75.5 141.39,-75.5 138.56,-72.67 138.56,-69.83 138.56,-69.83 138.56,-64.17 138.56,-64.17 138.56,-61.33 141.39,-58.5 144.22,-58.5 144.22,-58.5 186.89,-58.5 186.89,-58.5 189.72,-58.5 192.56,-61.33 192.56,-64.17 192.56,-64.17 192.56,-69.83 192.56,-69.83 192.56,-72.67 189.72,-75.5 186.89,-75.5"/>
<text text-anchor="middle" x="165.56" y="-64.3" font-family="Helvetica,sans-Serif" font-size="9.00">shared.ts</text>
</a>
</g>
</g>
</g>
</svg>
